<svg width="400" height="233" viewBox="0 0 400 233" fill="none" xmlns="http://www.w3.org/2000/svg">
<g clip-path="url(#clip0_42_89)">
<path d="M89 214V208" stroke="#5F435B" stroke-width="0.5" stroke-miterlimit="10"/>
<path d="M158 214V208" stroke="#5F435B" stroke-width="0.5" stroke-miterlimit="10"/>
<path d="M227 214V208" stroke="#5F435B" stroke-width="0.5" stroke-miterlimit="10"/>
<path d="M295 214V208" stroke="#5F435B" stroke-width="0.5" stroke-miterlimit="10"/>
<path d="M363 214V208" stroke="#5F435B" stroke-width="0.5" stroke-miterlimit="10"/>
<path d="M0 208H400" stroke="#5F435B" stroke-width="0.5" stroke-miterlimit="10"/>
<path d="M0 161H400" stroke="#5F435B" stroke-width="0.5" stroke-miterlimit="10"/>
<path d="M0 115H400" stroke="#5F435B" stroke-width="0.5" stroke-miterlimit="10"/>
<path d="M0 67H400" stroke="#5F435B" stroke-width="0.5" stroke-miterlimit="10"/>
<path d="M0 20H400" stroke="#5F435B" stroke-width="0.5" stroke-miterlimit="10"/>
<path d="M42 41.2472L48.8431 31L55.6863 38.9909L62.5294 54.1266L69.3725 58.7331L76.2157 70.2964L89.902 37.0167L103.588 63.8097L110.431 80.7316L117.275 57.981L124.118 155L130.961 84.21L137.804 51.2123L144.647 98.2176L151.49 116.362L158.333 70.8605L165.176 82.0478L178.863 109.405L185.706 110.909L199.392 101.132L213.078 80.7316L226.765 92.2949L240.451 117.49L254.137 107.337L267.823 101.602L281.51 94.8332L295.196 96.5254L308.882 63.7157L322.569 112.319L336.255 110.627L349.941 77.7233L377.314 111.661L391 107.243" stroke="#FF24BD" stroke-width="2" stroke-miterlimit="10"/>
<text fill="#BE90AA" style="white-space: pre" xml:space="preserve" font-family="Menlo" font-size="14" letter-spacing="0em"><tspan x="73.6289" y="232.847">1980</tspan></text>
<text fill="#BE90AA" style="white-space: pre" xml:space="preserve" font-family="Menlo" font-size="14" letter-spacing="0em"><tspan x="348.129" y="232.847">2020</tspan></text>
<text fill="#BE90AA" style="white-space: pre" xml:space="preserve" font-family="Menlo" font-size="14" letter-spacing="0em"><tspan x="0" y="203.847">50%</tspan></text>
<text fill="#BE90AA" style="white-space: pre" xml:space="preserve" font-family="Menlo" font-size="14" letter-spacing="0em"><tspan x="0" y="155.847">55%</tspan></text>
<text fill="#BE90AA" style="white-space: pre" xml:space="preserve" font-family="Menlo" font-size="14" letter-spacing="0em"><tspan x="0" y="110.847">60%</tspan></text>
<text fill="#BE90AA" style="white-space: pre" xml:space="preserve" font-family="Menlo" font-size="14" letter-spacing="0em"><tspan x="0" y="62.8467">65%</tspan></text>
<text fill="#FF24BD" style="white-space: pre" xml:space="preserve" font-family="Menlo" font-size="13" letter-spacing="0em"><tspan x="128.25" y="40.0005">67%</tspan></text>
<text fill="#FF24BD" style="white-space: pre" xml:space="preserve" font-family="Menlo" font-size="13" letter-spacing="0em"><tspan x="375.25" y="101">61%</tspan></text>
<text fill="#BE90AA" style="white-space: pre" xml:space="preserve" font-family="Menlo" font-size="14" letter-spacing="0em"><tspan x="0" y="15.8467">70%</tspan></text>
<text fill="#BE90AA" style="white-space: pre" xml:space="preserve" font-family="Menlo" font-size="14" letter-spacing="0em"><tspan x="279.629" y="232.847">2010</tspan></text>
<text fill="#BE90AA" style="white-space: pre" xml:space="preserve" font-family="Menlo" font-size="14" letter-spacing="0em"><tspan x="210.629" y="232.847">2000</tspan></text>
<text fill="#BE90AA" style="white-space: pre" xml:space="preserve" font-family="Menlo" font-size="14" letter-spacing="0em"><tspan x="142.129" y="232.847">1990</tspan></text>
</g>
<defs>
<clipPath id="clip0_42_89">
<rect width="400" height="233" fill="white"/>
</clipPath>
</defs>
</svg>
