<svg width="400" height="225" viewBox="0 0 400 225" fill="none" xmlns="http://www.w3.org/2000/svg">
<path d="M375.187 215H23.874C19.9782 215 17.579 210.742 19.5973 207.41L137.705 12.4097C138.611 10.9138 140.232 10 141.981 10L258.645 10.0001C260.404 10.0001 262.034 10.9248 262.937 12.435L379.479 207.435C381.471 210.768 379.069 215 375.187 215Z" fill="#5F435B" stroke="black"/>
<path d="M123.619 195.577V199.138H125.104C125.697 199.138 126.158 198.981 126.488 198.668C126.823 198.355 126.99 197.917 126.99 197.354C126.99 196.791 126.825 196.355 126.495 196.046C126.165 195.733 125.701 195.577 125.104 195.577H123.619ZM122.337 194.523H125.104C126.162 194.523 126.964 194.764 127.51 195.247C128.056 195.725 128.329 196.427 128.329 197.354C128.329 198.289 128.056 198.996 127.51 199.474C126.969 199.952 126.167 200.191 125.104 200.191H123.619V204H122.337V194.523ZM135.591 199.595V204H134.417V199.595C134.417 198.956 134.304 198.486 134.08 198.186C133.856 197.885 133.505 197.735 133.026 197.735C132.48 197.735 132.059 197.93 131.763 198.319C131.471 198.704 131.325 199.258 131.325 199.982V204H130.157V194.123H131.325V197.957C131.533 197.551 131.814 197.244 132.169 197.037C132.525 196.825 132.946 196.719 133.433 196.719C134.156 196.719 134.696 196.958 135.051 197.437C135.411 197.91 135.591 198.63 135.591 199.595ZM142.199 201.715C142.004 202.21 141.757 202.862 141.456 203.67C141.037 204.787 140.756 205.468 140.612 205.714C140.417 206.044 140.174 206.292 139.882 206.457C139.59 206.622 139.249 206.704 138.86 206.704H137.92V205.727H138.612C138.955 205.727 139.224 205.627 139.418 205.428C139.613 205.229 139.861 204.715 140.161 203.886L137.413 196.891H138.65L140.758 202.451L142.833 196.891H144.071L142.199 201.715ZM150.762 197.138V198.281C150.427 198.086 150.091 197.94 149.752 197.843C149.414 197.745 149.069 197.697 148.718 197.697C148.189 197.697 147.793 197.784 147.531 197.957C147.273 198.126 147.144 198.387 147.144 198.738C147.144 199.055 147.241 199.292 147.436 199.449C147.63 199.605 148.115 199.758 148.889 199.906L149.359 199.995C149.939 200.105 150.377 200.325 150.673 200.655C150.973 200.985 151.124 201.414 151.124 201.943C151.124 202.646 150.874 203.196 150.375 203.594C149.875 203.987 149.181 204.184 148.292 204.184C147.941 204.184 147.573 204.146 147.188 204.07C146.803 203.998 146.386 203.888 145.938 203.74V202.534C146.373 202.758 146.79 202.927 147.188 203.042C147.586 203.152 147.962 203.207 148.318 203.207C148.834 203.207 149.234 203.103 149.518 202.896C149.801 202.684 149.943 202.39 149.943 202.013C149.943 201.472 149.424 201.097 148.388 200.89L148.337 200.877L147.899 200.788C147.226 200.657 146.735 200.437 146.426 200.128C146.117 199.815 145.963 199.389 145.963 198.852C145.963 198.171 146.194 197.646 146.655 197.278C147.116 196.905 147.774 196.719 148.629 196.719C149.01 196.719 149.376 196.755 149.727 196.827C150.078 196.895 150.423 196.999 150.762 197.138ZM154.424 196.916H157.414V203.092H159.731V204H153.929V203.092H156.246V197.824H154.424V196.916ZM156.246 194.155H157.414V195.627H156.246V194.155ZM164.162 197.709C163.569 197.709 163.121 197.94 162.816 198.401C162.511 198.863 162.359 199.546 162.359 200.452C162.359 201.353 162.511 202.036 162.816 202.502C163.121 202.963 163.569 203.194 164.162 203.194C164.758 203.194 165.209 202.963 165.514 202.502C165.818 202.036 165.971 201.353 165.971 200.452C165.971 199.546 165.818 198.863 165.514 198.401C165.209 197.94 164.758 197.709 164.162 197.709ZM164.162 196.719C165.148 196.719 165.901 197.039 166.421 197.678C166.946 198.317 167.208 199.241 167.208 200.452C167.208 201.666 166.948 202.593 166.428 203.232C165.907 203.867 165.152 204.184 164.162 204.184C163.176 204.184 162.422 203.867 161.902 203.232C161.381 202.593 161.121 201.666 161.121 200.452C161.121 199.241 161.381 198.317 161.902 197.678C162.422 197.039 163.176 196.719 164.162 196.719ZM172.648 201.429C172.648 201.954 172.744 202.35 172.934 202.616C173.129 202.883 173.414 203.016 173.791 203.016H175.156V204H173.677C172.979 204 172.437 203.778 172.052 203.333C171.671 202.885 171.48 202.25 171.48 201.429V194.999H169.608V194.085H172.648V201.429ZM179.828 197.709C179.235 197.709 178.787 197.94 178.482 198.401C178.177 198.863 178.025 199.546 178.025 200.452C178.025 201.353 178.177 202.036 178.482 202.502C178.787 202.963 179.235 203.194 179.828 203.194C180.424 203.194 180.875 202.963 181.18 202.502C181.484 202.036 181.637 201.353 181.637 200.452C181.637 199.546 181.484 198.863 181.18 198.401C180.875 197.94 180.424 197.709 179.828 197.709ZM179.828 196.719C180.814 196.719 181.567 197.039 182.087 197.678C182.612 198.317 182.875 199.241 182.875 200.452C182.875 201.666 182.614 202.593 182.094 203.232C181.573 203.867 180.818 204.184 179.828 204.184C178.842 204.184 178.088 203.867 177.568 203.232C177.047 202.593 176.787 201.666 176.787 200.452C176.787 199.241 177.047 198.317 177.568 197.678C178.088 197.039 178.842 196.719 179.828 196.719ZM189.197 200.388C189.197 199.512 189.053 198.848 188.765 198.395C188.482 197.938 188.067 197.709 187.521 197.709C186.95 197.709 186.514 197.938 186.213 198.395C185.913 198.848 185.763 199.512 185.763 200.388C185.763 201.264 185.913 201.933 186.213 202.394C186.518 202.851 186.958 203.08 187.534 203.08C188.071 203.08 188.482 202.849 188.765 202.388C189.053 201.926 189.197 201.26 189.197 200.388ZM190.365 203.543C190.365 204.609 190.113 205.418 189.609 205.968C189.106 206.518 188.365 206.793 187.388 206.793C187.066 206.793 186.73 206.763 186.378 206.704C186.027 206.645 185.676 206.558 185.325 206.444V205.289C185.739 205.483 186.116 205.627 186.455 205.72C186.793 205.813 187.104 205.86 187.388 205.86C188.018 205.86 188.477 205.688 188.765 205.346C189.053 205.003 189.197 204.459 189.197 203.714V203.664V202.87C189.011 203.268 188.757 203.564 188.435 203.759C188.113 203.953 187.722 204.051 187.261 204.051C186.431 204.051 185.769 203.719 185.274 203.054C184.779 202.39 184.531 201.501 184.531 200.388C184.531 199.271 184.779 198.38 185.274 197.716C185.769 197.051 186.431 196.719 187.261 196.719C187.718 196.719 188.105 196.81 188.422 196.992C188.74 197.174 188.998 197.456 189.197 197.836V196.916H190.365V203.543ZM193.589 196.916H196.579V203.092H198.896V204H193.094V203.092H195.411V197.824H193.589V196.916ZM195.411 194.155H196.579V195.627H195.411V194.155ZM206.151 203.638C205.838 203.82 205.514 203.956 205.18 204.044C204.85 204.138 204.512 204.184 204.165 204.184C203.064 204.184 202.203 203.854 201.581 203.194C200.963 202.534 200.654 201.62 200.654 200.452C200.654 199.284 200.963 198.37 201.581 197.709C202.203 197.049 203.064 196.719 204.165 196.719C204.507 196.719 204.842 196.764 205.167 196.853C205.493 196.941 205.821 197.079 206.151 197.265V198.49C205.842 198.215 205.531 198.016 205.218 197.894C204.909 197.771 204.558 197.709 204.165 197.709C203.432 197.709 202.87 197.946 202.476 198.42C202.083 198.894 201.886 199.571 201.886 200.452C201.886 201.328 202.083 202.005 202.476 202.483C202.874 202.957 203.437 203.194 204.165 203.194C204.571 203.194 204.935 203.132 205.256 203.01C205.578 202.883 205.876 202.688 206.151 202.426V203.638ZM211.706 200.426H211.318C210.637 200.426 210.123 200.547 209.776 200.788C209.433 201.025 209.262 201.381 209.262 201.854C209.262 202.282 209.391 202.614 209.649 202.851C209.907 203.088 210.265 203.207 210.722 203.207C211.365 203.207 211.871 202.984 212.239 202.54C212.607 202.091 212.793 201.474 212.797 200.687V200.426H211.706ZM213.972 199.944V204H212.797V202.946C212.548 203.369 212.232 203.683 211.852 203.886C211.475 204.085 211.016 204.184 210.474 204.184C209.75 204.184 209.173 203.981 208.741 203.575C208.31 203.164 208.094 202.616 208.094 201.931C208.094 201.139 208.358 200.538 208.887 200.128C209.42 199.717 210.201 199.512 211.229 199.512H212.797V199.328C212.793 198.761 212.649 198.351 212.366 198.097C212.082 197.839 211.629 197.709 211.007 197.709C210.61 197.709 210.208 197.767 209.801 197.881C209.395 197.995 208.999 198.162 208.614 198.382V197.214C209.046 197.049 209.458 196.927 209.852 196.846C210.25 196.762 210.635 196.719 211.007 196.719C211.596 196.719 212.097 196.806 212.512 196.979C212.931 197.153 213.269 197.413 213.527 197.76C213.688 197.972 213.802 198.234 213.87 198.547C213.938 198.856 213.972 199.322 213.972 199.944ZM219.646 201.429C219.646 201.954 219.742 202.35 219.932 202.616C220.127 202.883 220.412 203.016 220.789 203.016H222.154V204H220.675C219.977 204 219.435 203.778 219.05 203.333C218.669 202.885 218.479 202.25 218.479 201.429V194.999H216.606V194.085H219.646V201.429ZM237.42 199.595V204H236.246V199.595C236.246 198.956 236.133 198.486 235.909 198.186C235.685 197.885 235.334 197.735 234.855 197.735C234.31 197.735 233.889 197.93 233.592 198.319C233.3 198.704 233.154 199.258 233.154 199.982V204H231.986V196.891H233.154V197.957C233.362 197.551 233.643 197.244 233.999 197.037C234.354 196.825 234.775 196.719 235.262 196.719C235.985 196.719 236.525 196.958 236.88 197.437C237.24 197.91 237.42 198.63 237.42 199.595ZM245.691 199.861V200.433H240.632V200.471C240.598 201.44 240.782 202.136 241.184 202.559C241.59 202.982 242.162 203.194 242.898 203.194C243.27 203.194 243.66 203.135 244.066 203.016C244.472 202.898 244.906 202.718 245.367 202.477V203.638C244.923 203.82 244.493 203.956 244.079 204.044C243.668 204.138 243.27 204.184 242.885 204.184C241.781 204.184 240.917 203.854 240.295 203.194C239.673 202.529 239.362 201.615 239.362 200.452C239.362 199.318 239.667 198.412 240.276 197.735C240.886 197.058 241.698 196.719 242.714 196.719C243.619 196.719 244.333 197.026 244.853 197.64C245.378 198.253 245.657 198.994 245.691 199.861ZM244.523 199.519C244.472 199.028 244.292 198.604 243.983 198.249C243.679 197.889 243.239 197.709 242.663 197.709C242.1 197.709 241.637 197.896 241.273 198.268C240.909 198.64 240.71 199.059 240.676 199.525L244.523 199.519ZM253.524 199.861V200.433H248.465V200.471C248.431 201.44 248.615 202.136 249.017 202.559C249.423 202.982 249.995 203.194 250.731 203.194C251.103 203.194 251.493 203.135 251.899 203.016C252.305 202.898 252.739 202.718 253.2 202.477V203.638C252.756 203.82 252.326 203.956 251.912 204.044C251.501 204.138 251.103 204.184 250.718 204.184C249.614 204.184 248.75 203.854 248.128 203.194C247.506 202.529 247.195 201.615 247.195 200.452C247.195 199.318 247.5 198.412 248.109 197.735C248.719 197.058 249.531 196.719 250.547 196.719C251.452 196.719 252.166 197.026 252.686 197.64C253.211 198.253 253.49 198.994 253.524 199.861ZM252.356 199.519C252.305 199.028 252.125 198.604 251.816 198.249C251.512 197.889 251.072 197.709 250.496 197.709C249.933 197.709 249.47 197.896 249.106 198.268C248.742 198.64 248.543 199.059 248.509 199.525L252.356 199.519ZM259.694 197.798V194.123H260.862V204H259.694V203.105C259.499 203.456 259.239 203.725 258.913 203.911C258.591 204.093 258.219 204.184 257.796 204.184C256.937 204.184 256.26 203.852 255.765 203.188C255.274 202.519 255.028 201.598 255.028 200.426C255.028 199.271 255.276 198.365 255.771 197.709C256.266 197.049 256.941 196.719 257.796 196.719C258.223 196.719 258.6 196.812 258.926 196.999C259.252 197.181 259.508 197.447 259.694 197.798ZM256.26 200.452C256.26 201.357 256.404 202.041 256.691 202.502C256.979 202.963 257.404 203.194 257.967 203.194C258.53 203.194 258.958 202.961 259.25 202.496C259.546 202.03 259.694 201.349 259.694 200.452C259.694 199.55 259.546 198.869 259.25 198.408C258.958 197.942 258.53 197.709 257.967 197.709C257.404 197.709 256.979 197.94 256.691 198.401C256.404 198.863 256.26 199.546 256.26 200.452ZM268.257 197.138V198.281C267.923 198.086 267.586 197.94 267.248 197.843C266.909 197.745 266.564 197.697 266.213 197.697C265.684 197.697 265.288 197.784 265.026 197.957C264.768 198.126 264.639 198.387 264.639 198.738C264.639 199.055 264.736 199.292 264.931 199.449C265.125 199.605 265.61 199.758 266.384 199.906L266.854 199.995C267.434 200.105 267.872 200.325 268.168 200.655C268.468 200.985 268.619 201.414 268.619 201.943C268.619 202.646 268.369 203.196 267.87 203.594C267.37 203.987 266.676 204.184 265.788 204.184C265.436 204.184 265.068 204.146 264.683 204.07C264.298 203.998 263.881 203.888 263.433 203.74V202.534C263.868 202.758 264.285 202.927 264.683 203.042C265.081 203.152 265.458 203.207 265.813 203.207C266.329 203.207 266.729 203.103 267.013 202.896C267.296 202.684 267.438 202.39 267.438 202.013C267.438 201.472 266.92 201.097 265.883 200.89L265.832 200.877L265.394 200.788C264.721 200.657 264.23 200.437 263.921 200.128C263.612 199.815 263.458 199.389 263.458 198.852C263.458 198.171 263.689 197.646 264.15 197.278C264.611 196.905 265.269 196.719 266.124 196.719C266.505 196.719 266.871 196.755 267.222 196.827C267.573 196.895 267.918 196.999 268.257 197.138Z" fill="white"/>
<path d="M154.926 151.847V153.148C154.536 152.898 154.145 152.71 153.751 152.583C153.362 152.456 152.969 152.393 152.571 152.393C151.966 152.393 151.487 152.534 151.136 152.818C150.785 153.097 150.609 153.476 150.609 153.954C150.609 154.373 150.724 154.693 150.952 154.913C151.185 155.133 151.617 155.317 152.247 155.465L152.92 155.617C153.809 155.825 154.456 156.15 154.862 156.595C155.269 157.039 155.472 157.644 155.472 158.41C155.472 159.312 155.192 159.999 154.634 160.473C154.075 160.947 153.263 161.184 152.196 161.184C151.752 161.184 151.306 161.135 150.857 161.038C150.408 160.945 149.958 160.803 149.505 160.613V159.248C149.992 159.557 150.451 159.783 150.882 159.927C151.318 160.071 151.756 160.143 152.196 160.143C152.844 160.143 153.347 159.999 153.707 159.711C154.067 159.419 154.247 159.013 154.247 158.493C154.247 158.019 154.122 157.657 153.872 157.407C153.627 157.158 153.197 156.965 152.583 156.83L151.898 156.671C151.018 156.472 150.379 156.172 149.981 155.77C149.583 155.368 149.384 154.828 149.384 154.151C149.384 153.305 149.668 152.627 150.235 152.12C150.806 151.608 151.564 151.352 152.507 151.352C152.871 151.352 153.254 151.394 153.656 151.479C154.058 151.559 154.481 151.682 154.926 151.847ZM160.791 157.426H160.404C159.722 157.426 159.208 157.547 158.861 157.788C158.519 158.025 158.347 158.381 158.347 158.854C158.347 159.282 158.476 159.614 158.734 159.851C158.993 160.088 159.35 160.207 159.807 160.207C160.45 160.207 160.956 159.984 161.324 159.54C161.692 159.091 161.879 158.474 161.883 157.687V157.426H160.791ZM163.057 156.944V161H161.883V159.946C161.633 160.369 161.318 160.683 160.937 160.886C160.56 161.085 160.101 161.184 159.56 161.184C158.836 161.184 158.258 160.981 157.827 160.575C157.395 160.164 157.179 159.616 157.179 158.931C157.179 158.139 157.444 157.538 157.973 157.128C158.506 156.717 159.287 156.512 160.315 156.512H161.883V156.328C161.879 155.761 161.735 155.351 161.451 155.097C161.168 154.839 160.715 154.709 160.093 154.709C159.695 154.709 159.293 154.767 158.887 154.881C158.48 154.995 158.085 155.162 157.7 155.382V154.214C158.131 154.049 158.544 153.927 158.938 153.846C159.335 153.762 159.72 153.719 160.093 153.719C160.681 153.719 161.182 153.806 161.597 153.979C162.016 154.153 162.355 154.413 162.613 154.76C162.774 154.972 162.888 155.234 162.956 155.547C163.023 155.856 163.057 156.322 163.057 156.944ZM170.916 151.123V152.094H169.589C169.17 152.094 168.878 152.181 168.713 152.354C168.552 152.524 168.472 152.826 168.472 153.262V153.891H170.916V154.798H168.472V161H167.304V154.798H165.406V153.891H167.304V153.396C167.304 152.617 167.481 152.043 167.837 151.675C168.197 151.307 168.755 151.123 169.513 151.123H170.916ZM179.11 156.861V157.433H174.051V157.471C174.017 158.44 174.201 159.136 174.604 159.559C175.01 159.982 175.581 160.194 176.317 160.194C176.69 160.194 177.079 160.135 177.485 160.016C177.892 159.898 178.325 159.718 178.787 159.477V160.638C178.342 160.82 177.913 160.956 177.498 161.044C177.088 161.138 176.69 161.184 176.305 161.184C175.2 161.184 174.337 160.854 173.715 160.194C173.093 159.529 172.782 158.615 172.782 157.452C172.782 156.318 173.086 155.412 173.696 154.735C174.305 154.058 175.118 153.719 176.133 153.719C177.039 153.719 177.752 154.026 178.272 154.64C178.797 155.253 179.076 155.994 179.11 156.861ZM177.942 156.519C177.892 156.028 177.712 155.604 177.403 155.249C177.098 154.889 176.658 154.709 176.083 154.709C175.52 154.709 175.056 154.896 174.692 155.268C174.328 155.64 174.13 156.059 174.096 156.525L177.942 156.519ZM183.731 151.872V153.891H186.385V154.798H183.731V158.658C183.731 159.182 183.831 159.549 184.03 159.756C184.229 159.963 184.576 160.067 185.071 160.067H186.385V161H184.957C184.081 161 183.463 160.824 183.103 160.473C182.743 160.122 182.563 159.517 182.563 158.658V154.798H180.666V153.891H182.563V151.872H183.731ZM193.113 158.715C192.919 159.21 192.671 159.862 192.371 160.67C191.952 161.787 191.67 162.468 191.526 162.714C191.332 163.044 191.088 163.292 190.796 163.457C190.504 163.622 190.164 163.704 189.774 163.704H188.835V162.727H189.527C189.87 162.727 190.138 162.627 190.333 162.428C190.528 162.229 190.775 161.715 191.076 160.886L188.327 153.891H189.565L191.672 159.451L193.748 153.891H194.986L193.113 158.715ZM210.004 156.595V161H208.83V156.595C208.83 155.956 208.718 155.486 208.494 155.186C208.269 154.885 207.918 154.735 207.44 154.735C206.894 154.735 206.473 154.93 206.177 155.319C205.885 155.704 205.739 156.258 205.739 156.982V161H204.571V153.891H205.739V154.957C205.946 154.551 206.228 154.244 206.583 154.037C206.938 153.825 207.36 153.719 207.846 153.719C208.57 153.719 209.109 153.958 209.465 154.437C209.825 154.91 210.004 155.63 210.004 156.595ZM218.275 156.861V157.433H213.216V157.471C213.182 158.44 213.367 159.136 213.769 159.559C214.175 159.982 214.746 160.194 215.482 160.194C215.855 160.194 216.244 160.135 216.65 160.016C217.057 159.898 217.49 159.718 217.952 159.477V160.638C217.507 160.82 217.078 160.956 216.663 161.044C216.253 161.138 215.855 161.184 215.47 161.184C214.365 161.184 213.502 160.854 212.88 160.194C212.258 159.529 211.947 158.615 211.947 157.452C211.947 156.318 212.251 155.412 212.861 154.735C213.47 154.058 214.283 153.719 215.298 153.719C216.204 153.719 216.917 154.026 217.438 154.64C217.962 155.253 218.242 155.994 218.275 156.861ZM217.107 156.519C217.057 156.028 216.877 155.604 216.568 155.249C216.263 154.889 215.823 154.709 215.248 154.709C214.685 154.709 214.221 154.896 213.857 155.268C213.493 155.64 213.295 156.059 213.261 156.525L217.107 156.519ZM226.108 156.861V157.433H221.049V157.471C221.015 158.44 221.2 159.136 221.602 159.559C222.008 159.982 222.579 160.194 223.315 160.194C223.688 160.194 224.077 160.135 224.483 160.016C224.89 159.898 225.323 159.718 225.785 159.477V160.638C225.34 160.82 224.911 160.956 224.496 161.044C224.086 161.138 223.688 161.184 223.303 161.184C222.198 161.184 221.335 160.854 220.713 160.194C220.091 159.529 219.78 158.615 219.78 157.452C219.78 156.318 220.084 155.412 220.694 154.735C221.303 154.058 222.116 153.719 223.131 153.719C224.037 153.719 224.75 154.026 225.271 154.64C225.795 155.253 226.075 155.994 226.108 156.861ZM224.94 156.519C224.89 156.028 224.71 155.604 224.401 155.249C224.096 154.889 223.656 154.709 223.081 154.709C222.518 154.709 222.054 154.896 221.69 155.268C221.326 155.64 221.128 156.059 221.094 156.525L224.94 156.519ZM232.278 154.798V151.123H233.446V161H232.278V160.105C232.084 160.456 231.823 160.725 231.498 160.911C231.176 161.093 230.804 161.184 230.38 161.184C229.521 161.184 228.844 160.852 228.349 160.188C227.858 159.519 227.613 158.598 227.613 157.426C227.613 156.271 227.86 155.365 228.355 154.709C228.851 154.049 229.526 153.719 230.38 153.719C230.808 153.719 231.184 153.812 231.51 153.999C231.836 154.181 232.092 154.447 232.278 154.798ZM228.844 157.452C228.844 158.357 228.988 159.041 229.276 159.502C229.564 159.963 229.989 160.194 230.552 160.194C231.115 160.194 231.542 159.961 231.834 159.496C232.13 159.03 232.278 158.349 232.278 157.452C232.278 156.55 232.13 155.869 231.834 155.408C231.542 154.942 231.115 154.709 230.552 154.709C229.989 154.709 229.564 154.94 229.276 155.401C228.988 155.863 228.844 156.546 228.844 157.452ZM240.841 154.138V155.281C240.507 155.086 240.171 154.94 239.832 154.843C239.493 154.745 239.149 154.697 238.797 154.697C238.268 154.697 237.873 154.784 237.61 154.957C237.352 155.126 237.223 155.387 237.223 155.738C237.223 156.055 237.32 156.292 237.515 156.449C237.71 156.605 238.194 156.758 238.969 156.906L239.438 156.995C240.018 157.105 240.456 157.325 240.752 157.655C241.053 157.985 241.203 158.414 241.203 158.943C241.203 159.646 240.953 160.196 240.454 160.594C239.955 160.987 239.261 161.184 238.372 161.184C238.021 161.184 237.653 161.146 237.268 161.07C236.882 160.998 236.466 160.888 236.017 160.74V159.534C236.453 159.758 236.87 159.927 237.268 160.042C237.665 160.152 238.042 160.207 238.397 160.207C238.914 160.207 239.314 160.103 239.597 159.896C239.881 159.684 240.022 159.39 240.022 159.013C240.022 158.472 239.504 158.097 238.467 157.89L238.417 157.877L237.979 157.788C237.306 157.657 236.815 157.437 236.506 157.128C236.197 156.815 236.042 156.389 236.042 155.852C236.042 155.171 236.273 154.646 236.734 154.278C237.196 153.905 237.854 153.719 238.708 153.719C239.089 153.719 239.455 153.755 239.807 153.827C240.158 153.895 240.503 153.999 240.841 154.138Z" fill="white"/>
<path d="M132.368 111.523H133.656V119.921H138.233V121H132.368V111.523ZM142.746 114.709C142.154 114.709 141.705 114.94 141.4 115.401C141.096 115.863 140.943 116.546 140.943 117.452C140.943 118.353 141.096 119.036 141.4 119.502C141.705 119.963 142.154 120.194 142.746 120.194C143.343 120.194 143.793 119.963 144.098 119.502C144.403 119.036 144.555 118.353 144.555 117.452C144.555 116.546 144.403 115.863 144.098 115.401C143.793 114.94 143.343 114.709 142.746 114.709ZM142.746 113.719C143.732 113.719 144.485 114.039 145.006 114.678C145.531 115.317 145.793 116.241 145.793 117.452C145.793 118.666 145.533 119.593 145.012 120.232C144.492 120.867 143.736 121.184 142.746 121.184C141.76 121.184 141.007 120.867 140.486 120.232C139.966 119.593 139.706 118.666 139.706 117.452C139.706 116.241 139.966 115.317 140.486 114.678C141.007 114.039 141.76 113.719 142.746 113.719ZM147.304 113.891H148.516L150.579 119.857L152.648 113.891H153.861L151.334 121H149.83L147.304 113.891ZM161.611 116.861V117.433H156.552V117.471C156.518 118.44 156.702 119.136 157.104 119.559C157.511 119.982 158.082 120.194 158.818 120.194C159.191 120.194 159.58 120.135 159.986 120.016C160.393 119.898 160.826 119.718 161.288 119.477V120.638C160.843 120.82 160.414 120.956 159.999 121.044C159.589 121.138 159.191 121.184 158.806 121.184C157.701 121.184 156.838 120.854 156.216 120.194C155.594 119.529 155.283 118.615 155.283 117.452C155.283 116.318 155.587 115.412 156.197 114.735C156.806 114.058 157.619 113.719 158.634 113.719C159.54 113.719 160.253 114.026 160.773 114.64C161.298 115.253 161.577 115.994 161.611 116.861ZM160.443 116.519C160.393 116.028 160.213 115.604 159.904 115.249C159.599 114.889 159.159 114.709 158.583 114.709C158.021 114.709 157.557 114.896 157.193 115.268C156.829 115.64 156.631 116.059 156.597 116.525L160.443 116.519ZM174.624 117.426H174.237C173.556 117.426 173.041 117.547 172.694 117.788C172.352 118.025 172.18 118.381 172.18 118.854C172.18 119.282 172.309 119.614 172.567 119.851C172.826 120.088 173.183 120.207 173.64 120.207C174.283 120.207 174.789 119.984 175.157 119.54C175.525 119.091 175.712 118.474 175.716 117.687V117.426H174.624ZM176.89 116.944V121H175.716V119.946C175.466 120.369 175.151 120.683 174.77 120.886C174.393 121.085 173.934 121.184 173.393 121.184C172.669 121.184 172.091 120.981 171.66 120.575C171.228 120.164 171.012 119.616 171.012 118.931C171.012 118.139 171.277 117.538 171.806 117.128C172.339 116.717 173.12 116.512 174.148 116.512H175.716V116.328C175.712 115.761 175.568 115.351 175.284 115.097C175.001 114.839 174.548 114.709 173.926 114.709C173.528 114.709 173.126 114.767 172.72 114.881C172.313 114.995 171.918 115.162 171.533 115.382V114.214C171.964 114.049 172.377 113.927 172.771 113.846C173.168 113.762 173.553 113.719 173.926 113.719C174.514 113.719 175.015 113.806 175.43 113.979C175.849 114.153 176.188 114.413 176.446 114.76C176.607 114.972 176.721 115.234 176.789 115.547C176.856 115.856 176.89 116.322 176.89 116.944ZM184.672 116.595V121H183.498V116.595C183.498 115.956 183.386 115.486 183.162 115.186C182.937 114.885 182.586 114.735 182.108 114.735C181.562 114.735 181.141 114.93 180.845 115.319C180.553 115.704 180.407 116.258 180.407 116.982V121H179.239V113.891H180.407V114.957C180.614 114.551 180.896 114.244 181.251 114.037C181.606 113.825 182.028 113.719 182.514 113.719C183.238 113.719 183.777 113.958 184.133 114.437C184.493 114.91 184.672 115.63 184.672 116.595ZM191.28 114.798V111.123H192.448V121H191.28V120.105C191.086 120.456 190.825 120.725 190.5 120.911C190.178 121.093 189.806 121.184 189.382 121.184C188.523 121.184 187.846 120.852 187.351 120.188C186.86 119.519 186.615 118.598 186.615 117.426C186.615 116.271 186.862 115.365 187.357 114.709C187.853 114.049 188.528 113.719 189.382 113.719C189.81 113.719 190.186 113.812 190.512 113.999C190.838 114.181 191.094 114.447 191.28 114.798ZM187.846 117.452C187.846 118.357 187.99 119.041 188.278 119.502C188.566 119.963 188.991 120.194 189.554 120.194C190.117 120.194 190.544 119.961 190.836 119.496C191.132 119.03 191.28 118.349 191.28 117.452C191.28 116.55 191.132 115.869 190.836 115.408C190.544 114.942 190.117 114.709 189.554 114.709C188.991 114.709 188.566 114.94 188.278 115.401C187.99 115.863 187.846 116.546 187.846 117.452ZM207.327 117.452C207.327 116.546 207.183 115.863 206.896 115.401C206.608 114.94 206.182 114.709 205.62 114.709C205.053 114.709 204.623 114.942 204.331 115.408C204.039 115.869 203.893 116.55 203.893 117.452C203.893 118.349 204.039 119.03 204.331 119.496C204.623 119.961 205.053 120.194 205.62 120.194C206.182 120.194 206.608 119.963 206.896 119.502C207.183 119.041 207.327 118.357 207.327 117.452ZM203.893 114.798C204.079 114.451 204.335 114.185 204.661 113.999C204.991 113.812 205.372 113.719 205.804 113.719C206.659 113.719 207.331 114.049 207.822 114.709C208.313 115.365 208.559 116.271 208.559 117.426C208.559 118.598 208.311 119.519 207.816 120.188C207.325 120.852 206.65 121.184 205.791 121.184C205.368 121.184 204.993 121.093 204.667 120.911C204.346 120.725 204.088 120.456 203.893 120.105V121H202.725V111.123H203.893V114.798ZM216.442 116.861V117.433H211.383V117.471C211.349 118.44 211.534 119.136 211.936 119.559C212.342 119.982 212.913 120.194 213.649 120.194C214.022 120.194 214.411 120.135 214.817 120.016C215.224 119.898 215.657 119.718 216.119 119.477V120.638C215.674 120.82 215.245 120.956 214.83 121.044C214.42 121.138 214.022 121.184 213.637 121.184C212.532 121.184 211.669 120.854 211.047 120.194C210.425 119.529 210.114 118.615 210.114 117.452C210.114 116.318 210.418 115.412 211.028 114.735C211.637 114.058 212.45 113.719 213.465 113.719C214.371 113.719 215.084 114.026 215.604 114.64C216.129 115.253 216.409 115.994 216.442 116.861ZM215.274 116.519C215.224 116.028 215.044 115.604 214.735 115.249C214.43 114.889 213.99 114.709 213.415 114.709C212.852 114.709 212.388 114.896 212.024 115.268C211.66 115.64 211.462 116.059 211.428 116.525L215.274 116.519ZM221.73 118.429C221.73 118.954 221.825 119.35 222.016 119.616C222.21 119.883 222.496 120.016 222.873 120.016H224.237V121H222.758C222.06 121 221.518 120.778 221.133 120.333C220.752 119.885 220.562 119.25 220.562 118.429V111.999H218.689V111.085H221.73V118.429ZM228.909 114.709C228.317 114.709 227.868 114.94 227.563 115.401C227.259 115.863 227.106 116.546 227.106 117.452C227.106 118.353 227.259 119.036 227.563 119.502C227.868 119.963 228.317 120.194 228.909 120.194C229.506 120.194 229.957 119.963 230.261 119.502C230.566 119.036 230.718 118.353 230.718 117.452C230.718 116.546 230.566 115.863 230.261 115.401C229.957 114.94 229.506 114.709 228.909 114.709ZM228.909 113.719C229.895 113.719 230.648 114.039 231.169 114.678C231.694 115.317 231.956 116.241 231.956 117.452C231.956 118.666 231.696 119.593 231.175 120.232C230.655 120.867 229.899 121.184 228.909 121.184C227.923 121.184 227.17 120.867 226.649 120.232C226.129 119.593 225.869 118.666 225.869 117.452C225.869 116.241 226.129 115.317 226.649 114.678C227.17 114.039 227.923 113.719 228.909 113.719ZM239.503 116.595V121H238.329V116.595C238.329 115.956 238.217 115.486 237.993 115.186C237.768 114.885 237.417 114.735 236.939 114.735C236.393 114.735 235.972 114.93 235.676 115.319C235.384 115.704 235.238 116.258 235.238 116.982V121H234.07V113.891H235.238V114.957C235.445 114.551 235.727 114.244 236.082 114.037C236.438 113.825 236.859 113.719 237.345 113.719C238.069 113.719 238.608 113.958 238.964 114.437C239.324 114.91 239.503 115.63 239.503 116.595ZM246.111 117.388C246.111 116.512 245.967 115.848 245.68 115.395C245.396 114.938 244.981 114.709 244.436 114.709C243.864 114.709 243.428 114.938 243.128 115.395C242.827 115.848 242.677 116.512 242.677 117.388C242.677 118.264 242.827 118.933 243.128 119.394C243.433 119.851 243.873 120.08 244.448 120.08C244.986 120.08 245.396 119.849 245.68 119.388C245.967 118.926 246.111 118.26 246.111 117.388ZM247.279 120.543C247.279 121.609 247.028 122.418 246.524 122.968C246.02 123.518 245.28 123.793 244.302 123.793C243.981 123.793 243.644 123.763 243.293 123.704C242.942 123.645 242.59 123.558 242.239 123.444V122.289C242.654 122.483 243.031 122.627 243.369 122.72C243.708 122.813 244.019 122.86 244.302 122.86C244.933 122.86 245.392 122.688 245.68 122.346C245.967 122.003 246.111 121.459 246.111 120.714V120.664V119.87C245.925 120.268 245.671 120.564 245.35 120.759C245.028 120.953 244.637 121.051 244.175 121.051C243.346 121.051 242.684 120.719 242.188 120.054C241.693 119.39 241.446 118.501 241.446 117.388C241.446 116.271 241.693 115.38 242.188 114.716C242.684 114.051 243.346 113.719 244.175 113.719C244.632 113.719 245.02 113.81 245.337 113.992C245.654 114.174 245.912 114.456 246.111 114.836V113.916H247.279V120.543ZM250.504 113.916H253.494V120.092H255.811V121H250.009V120.092H252.326V114.824H250.504V113.916ZM252.326 111.155H253.494V112.627H252.326V111.155ZM263.002 116.595V121H261.828V116.595C261.828 115.956 261.716 115.486 261.492 115.186C261.267 114.885 260.916 114.735 260.438 114.735C259.892 114.735 259.471 114.93 259.175 115.319C258.883 115.704 258.737 116.258 258.737 116.982V121H257.569V113.891H258.737V114.957C258.944 114.551 259.226 114.244 259.581 114.037C259.937 113.825 260.358 113.719 260.844 113.719C261.568 113.719 262.107 113.958 262.463 114.437C262.823 114.91 263.002 115.63 263.002 116.595ZM269.61 117.388C269.61 116.512 269.466 115.848 269.179 115.395C268.895 114.938 268.48 114.709 267.935 114.709C267.363 114.709 266.927 114.938 266.627 115.395C266.326 115.848 266.176 116.512 266.176 117.388C266.176 118.264 266.326 118.933 266.627 119.394C266.932 119.851 267.372 120.08 267.947 120.08C268.485 120.08 268.895 119.849 269.179 119.388C269.466 118.926 269.61 118.26 269.61 117.388ZM270.778 120.543C270.778 121.609 270.527 122.418 270.023 122.968C269.519 123.518 268.779 123.793 267.801 123.793C267.48 123.793 267.143 123.763 266.792 123.704C266.441 123.645 266.09 123.558 265.738 123.444V122.289C266.153 122.483 266.53 122.627 266.868 122.72C267.207 122.813 267.518 122.86 267.801 122.86C268.432 122.86 268.891 122.688 269.179 122.346C269.466 122.003 269.61 121.459 269.61 120.714V120.664V119.87C269.424 120.268 269.17 120.564 268.849 120.759C268.527 120.953 268.136 121.051 267.674 121.051C266.845 121.051 266.183 120.719 265.688 120.054C265.192 119.39 264.945 118.501 264.945 117.388C264.945 116.271 265.192 115.38 265.688 114.716C266.183 114.051 266.845 113.719 267.674 113.719C268.131 113.719 268.519 113.81 268.836 113.992C269.153 114.174 269.411 114.456 269.61 114.836V113.916H270.778V120.543Z" fill="white"/>
<path d="M179.251 69.5229H184.875V70.6021H180.534V73.1538H184.685V74.2329H180.534V77.9209H184.996V79H179.251V69.5229ZM192.01 72.1382V73.2808C191.676 73.0861 191.34 72.9401 191.001 72.8428C190.662 72.7454 190.318 72.6968 189.966 72.6968C189.437 72.6968 189.042 72.7835 188.779 72.957C188.521 73.1263 188.392 73.3866 188.392 73.7378C188.392 74.0552 188.489 74.2922 188.684 74.4487C188.879 74.6053 189.363 74.7576 190.138 74.9058L190.607 74.9946C191.187 75.1047 191.625 75.3247 191.921 75.6548C192.222 75.9849 192.372 76.4144 192.372 76.9434C192.372 77.6458 192.122 78.196 191.623 78.5938C191.124 78.9873 190.43 79.1841 189.541 79.1841C189.19 79.1841 188.822 79.146 188.437 79.0698C188.051 78.9979 187.635 78.8879 187.186 78.7397V77.5337C187.622 77.758 188.039 77.9272 188.437 78.0415C188.834 78.1515 189.211 78.2065 189.566 78.2065C190.083 78.2065 190.483 78.1029 190.766 77.8955C191.05 77.6839 191.191 77.3898 191.191 77.0132C191.191 76.4715 190.673 76.097 189.636 75.8896L189.585 75.877L189.147 75.7881C188.475 75.6569 187.984 75.4368 187.675 75.1279C187.366 74.8148 187.211 74.3895 187.211 73.8521C187.211 73.1707 187.442 72.646 187.903 72.2778C188.365 71.9054 189.023 71.7192 189.877 71.7192C190.258 71.7192 190.624 71.7552 190.976 71.8271C191.327 71.8949 191.672 71.9985 192.01 72.1382ZM197.564 69.8721V71.8906H200.218V72.7983H197.564V76.6577C197.564 77.1825 197.664 77.5485 197.863 77.7559C198.062 77.9632 198.409 78.0669 198.904 78.0669H200.218V79H198.79C197.914 79 197.296 78.8244 196.936 78.4731C196.576 78.1219 196.396 77.5168 196.396 76.6577V72.7983H194.499V71.8906H196.396V69.8721H197.564ZM208.609 74.8613V75.4326H203.55V75.4707C203.516 76.4398 203.701 77.1359 204.103 77.5591C204.509 77.9823 205.08 78.1938 205.816 78.1938C206.189 78.1938 206.578 78.1346 206.984 78.0161C207.391 77.8976 207.824 77.7178 208.286 77.4766V78.6382C207.841 78.8201 207.412 78.9556 206.997 79.0444C206.587 79.1375 206.189 79.1841 205.804 79.1841C204.699 79.1841 203.836 78.854 203.214 78.1938C202.592 77.5295 202.281 76.6154 202.281 75.4517C202.281 74.3175 202.585 73.4119 203.195 72.7349C203.804 72.0578 204.617 71.7192 205.632 71.7192C206.538 71.7192 207.251 72.026 207.771 72.6396C208.296 73.2533 208.576 73.9938 208.609 74.8613ZM207.441 74.5186C207.391 74.0277 207.211 73.6045 206.902 73.249C206.597 72.8893 206.157 72.7095 205.582 72.7095C205.019 72.7095 204.555 72.8957 204.191 73.2681C203.827 73.6405 203.629 74.0594 203.595 74.5249L207.441 74.5186ZM216.442 74.8613V75.4326H211.383V75.4707C211.349 76.4398 211.534 77.1359 211.936 77.5591C212.342 77.9823 212.913 78.1938 213.649 78.1938C214.022 78.1938 214.411 78.1346 214.817 78.0161C215.224 77.8976 215.657 77.7178 216.119 77.4766V78.6382C215.674 78.8201 215.245 78.9556 214.83 79.0444C214.42 79.1375 214.022 79.1841 213.637 79.1841C212.532 79.1841 211.669 78.854 211.047 78.1938C210.425 77.5295 210.114 76.6154 210.114 75.4517C210.114 74.3175 210.418 73.4119 211.028 72.7349C211.637 72.0578 212.45 71.7192 213.465 71.7192C214.371 71.7192 215.084 72.026 215.604 72.6396C216.129 73.2533 216.409 73.9938 216.442 74.8613ZM215.274 74.5186C215.224 74.0277 215.044 73.6045 214.735 73.249C214.43 72.8893 213.99 72.7095 213.415 72.7095C212.852 72.7095 212.388 72.8957 212.024 73.2681C211.66 73.6405 211.462 74.0594 211.428 74.5249L215.274 74.5186ZM221.457 72.6143C221.601 72.3096 221.783 72.0853 222.003 71.9414C222.227 71.7933 222.496 71.7192 222.809 71.7192C223.38 71.7192 223.782 71.9414 224.015 72.3857C224.252 72.8258 224.371 73.6574 224.371 74.8804V79H223.304V74.9312C223.304 73.9282 223.247 73.3062 223.133 73.0649C223.023 72.8195 222.82 72.6968 222.523 72.6968C222.185 72.6968 221.952 72.828 221.825 73.0903C221.702 73.3485 221.641 73.9621 221.641 74.9312V79H220.575V74.9312C220.575 73.9155 220.513 73.2892 220.391 73.0522C220.272 72.8153 220.056 72.6968 219.743 72.6968C219.434 72.6968 219.218 72.828 219.096 73.0903C218.977 73.3485 218.918 73.9621 218.918 74.9312V79H217.858V71.8906H218.918V72.5C219.058 72.2461 219.231 72.0535 219.438 71.9224C219.65 71.7869 219.889 71.7192 220.156 71.7192C220.477 71.7192 220.744 71.7933 220.956 71.9414C221.171 72.0895 221.339 72.3138 221.457 72.6143Z" fill="white"/>
<path d="M137.427 26.8467V28.1479C137.037 27.8983 136.646 27.71 136.252 27.583C135.863 27.4561 135.47 27.3926 135.072 27.3926C134.467 27.3926 133.988 27.5343 133.637 27.8179C133.286 28.0972 133.11 28.4759 133.11 28.9541C133.11 29.373 133.225 29.6925 133.453 29.9126C133.686 30.1326 134.118 30.3167 134.748 30.4648L135.421 30.6172C136.31 30.8245 136.957 31.1504 137.363 31.5947C137.77 32.0391 137.973 32.6442 137.973 33.4102C137.973 34.3115 137.693 34.9992 137.135 35.4731C136.576 35.9471 135.764 36.1841 134.697 36.1841C134.253 36.1841 133.806 36.1354 133.358 36.0381C132.909 35.945 132.459 35.8032 132.006 35.6128V34.248C132.493 34.557 132.952 34.7834 133.383 34.9272C133.819 35.0711 134.257 35.1431 134.697 35.1431C135.345 35.1431 135.848 34.9992 136.208 34.7114C136.568 34.4194 136.748 34.0132 136.748 33.4927C136.748 33.0187 136.623 32.6569 136.373 32.4072C136.128 32.1576 135.698 31.965 135.084 31.8296L134.399 31.6709C133.519 31.472 132.88 31.1715 132.482 30.7695C132.084 30.3675 131.885 29.828 131.885 29.1509C131.885 28.3045 132.169 27.6274 132.736 27.1196C133.307 26.6076 134.065 26.3516 135.008 26.3516C135.372 26.3516 135.755 26.3939 136.157 26.4785C136.559 26.5589 136.982 26.6816 137.427 26.8467ZM145.945 31.8613V32.4326H140.886V32.4707C140.852 33.4398 141.036 34.1359 141.438 34.5591C141.845 34.9823 142.416 35.1938 143.152 35.1938C143.525 35.1938 143.914 35.1346 144.32 35.0161C144.727 34.8976 145.16 34.7178 145.622 34.4766V35.6382C145.177 35.8201 144.748 35.9556 144.333 36.0444C143.923 36.1375 143.525 36.1841 143.14 36.1841C142.035 36.1841 141.172 35.854 140.55 35.1938C139.928 34.5295 139.617 33.6154 139.617 32.4517C139.617 31.3175 139.921 30.4119 140.531 29.7349C141.14 29.0578 141.953 28.7192 142.968 28.7192C143.874 28.7192 144.587 29.026 145.107 29.6396C145.632 30.2533 145.911 30.9938 145.945 31.8613ZM144.777 31.5186C144.727 31.0277 144.547 30.6045 144.238 30.249C143.933 29.8893 143.493 29.7095 142.917 29.7095C142.355 29.7095 141.891 29.8957 141.527 30.2681C141.163 30.6405 140.965 31.0594 140.931 31.5249L144.777 31.5186ZM151.233 33.4292C151.233 33.9539 151.328 34.3496 151.519 34.6162C151.713 34.8828 151.999 35.0161 152.375 35.0161H153.74V36H152.261C151.563 36 151.021 35.7778 150.636 35.3335C150.255 34.8849 150.065 34.2502 150.065 33.4292V26.999H148.192V26.085H151.233V33.4292ZM161.25 26.123V27.0942H159.923C159.504 27.0942 159.212 27.181 159.047 27.3545C158.886 27.5238 158.806 27.8263 158.806 28.2622V28.8906H161.25V29.7983H158.806V36H157.638V29.7983H155.74V28.8906H157.638V28.3955C157.638 27.6169 157.815 27.0435 158.171 26.6753C158.531 26.3071 159.089 26.123 159.847 26.123H161.25ZM162.982 31.4043H169.711V32.4771H162.982V31.4043ZM174.624 32.4263H174.237C173.556 32.4263 173.041 32.5469 172.694 32.7881C172.352 33.0251 172.18 33.3805 172.18 33.8545C172.18 34.2819 172.309 34.6141 172.567 34.8511C172.826 35.0881 173.183 35.2065 173.64 35.2065C174.283 35.2065 174.789 34.9844 175.157 34.54C175.525 34.0915 175.712 33.4736 175.716 32.6865V32.4263H174.624ZM176.89 31.9438V36H175.716V34.9463C175.466 35.3695 175.151 35.6826 174.77 35.8857C174.393 36.0846 173.934 36.1841 173.393 36.1841C172.669 36.1841 172.091 35.981 171.66 35.5747C171.228 35.1642 171.012 34.6162 171.012 33.9307C171.012 33.1393 171.277 32.5384 171.806 32.1279C172.339 31.7174 173.12 31.5122 174.148 31.5122H175.716V31.3281C175.712 30.7611 175.568 30.3506 175.284 30.0967C175.001 29.8385 174.548 29.7095 173.926 29.7095C173.528 29.7095 173.126 29.7666 172.72 29.8809C172.313 29.9951 171.918 30.1623 171.533 30.3823V29.2144C171.964 29.0493 172.377 28.9266 172.771 28.8462C173.168 28.7616 173.553 28.7192 173.926 28.7192C174.514 28.7192 175.015 28.806 175.43 28.9795C175.849 29.153 176.188 29.4132 176.446 29.7603C176.607 29.9718 176.721 30.2342 176.789 30.5474C176.856 30.8563 176.89 31.3218 176.89 31.9438ZM184.736 35.6382C184.423 35.8201 184.099 35.9556 183.765 36.0444C183.435 36.1375 183.096 36.1841 182.749 36.1841C181.649 36.1841 180.788 35.854 180.166 35.1938C179.548 34.5337 179.239 33.6196 179.239 32.4517C179.239 31.2837 179.548 30.3696 180.166 29.7095C180.788 29.0493 181.649 28.7192 182.749 28.7192C183.092 28.7192 183.426 28.7637 183.752 28.8525C184.078 28.9414 184.406 29.0789 184.736 29.2651V30.4902C184.427 30.2152 184.116 30.0163 183.803 29.8936C183.494 29.7708 183.143 29.7095 182.749 29.7095C182.017 29.7095 181.454 29.9465 181.061 30.4204C180.667 30.8944 180.47 31.5715 180.47 32.4517C180.47 33.3276 180.667 34.0047 181.061 34.4829C181.458 34.9569 182.021 35.1938 182.749 35.1938C183.155 35.1938 183.519 35.1325 183.841 35.0098C184.162 34.8828 184.461 34.6882 184.736 34.4258V35.6382ZM189.731 26.8721V28.8906H192.385V29.7983H189.731V33.6577C189.731 34.1825 189.831 34.5485 190.03 34.7559C190.229 34.9632 190.576 35.0669 191.071 35.0669H192.385V36H190.957C190.081 36 189.463 35.8244 189.103 35.4731C188.743 35.1219 188.563 34.5168 188.563 33.6577V29.7983H186.666V28.8906H188.563V26.8721H189.731ZM194.905 33.3086V28.9033H196.073V33.3086C196.073 33.9476 196.185 34.4173 196.409 34.7178C196.638 35.0182 196.989 35.1685 197.463 35.1685C198.013 35.1685 198.434 34.9759 198.726 34.5908C199.018 34.2015 199.164 33.645 199.164 32.9214V28.9033H200.338V36H199.164V34.9336C198.957 35.3441 198.673 35.6551 198.313 35.8667C197.958 36.0783 197.541 36.1841 197.063 36.1841C196.335 36.1841 195.793 35.9471 195.438 35.4731C195.083 34.995 194.905 34.2734 194.905 33.3086ZM205.956 32.4263H205.569C204.888 32.4263 204.373 32.5469 204.026 32.7881C203.684 33.0251 203.512 33.3805 203.512 33.8545C203.512 34.2819 203.641 34.6141 203.899 34.8511C204.158 35.0881 204.515 35.2065 204.972 35.2065C205.615 35.2065 206.121 34.9844 206.489 34.54C206.857 34.0915 207.044 33.4736 207.048 32.6865V32.4263H205.956ZM208.222 31.9438V36H207.048V34.9463C206.798 35.3695 206.483 35.6826 206.102 35.8857C205.725 36.0846 205.266 36.1841 204.725 36.1841C204.001 36.1841 203.423 35.981 202.992 35.5747C202.56 35.1642 202.344 34.6162 202.344 33.9307C202.344 33.1393 202.609 32.5384 203.138 32.1279C203.671 31.7174 204.452 31.5122 205.48 31.5122H207.048V31.3281C207.044 30.7611 206.9 30.3506 206.616 30.0967C206.333 29.8385 205.88 29.7095 205.258 29.7095C204.86 29.7095 204.458 29.7666 204.052 29.8809C203.646 29.9951 203.25 30.1623 202.865 30.3823V29.2144C203.296 29.0493 203.709 28.9266 204.103 28.8462C204.5 28.7616 204.885 28.7192 205.258 28.7192C205.846 28.7192 206.347 28.806 206.762 28.9795C207.181 29.153 207.52 29.4132 207.778 29.7603C207.939 29.9718 208.053 30.2342 208.121 30.5474C208.188 30.8563 208.222 31.3218 208.222 31.9438ZM213.897 33.4292C213.897 33.9539 213.992 34.3496 214.183 34.6162C214.377 34.8828 214.663 35.0161 215.04 35.0161H216.404V36H214.925C214.227 36 213.685 35.7778 213.3 35.3335C212.919 34.8849 212.729 34.2502 212.729 33.4292V26.999H210.856V26.085H213.897V33.4292ZM219.172 28.916H222.162V35.0923H224.479V36H218.677V35.0923H220.994V29.8237H219.172V28.916ZM220.994 26.1548H222.162V27.6274H220.994V26.1548ZM226.44 28.8779H231.601V29.9443L227.519 35.0479H231.601V36H226.288V34.9209L230.369 29.811H226.44V28.8779ZM237.288 32.4263H236.901C236.22 32.4263 235.705 32.5469 235.358 32.7881C235.016 33.0251 234.844 33.3805 234.844 33.8545C234.844 34.2819 234.973 34.6141 235.231 34.8511C235.49 35.0881 235.847 35.2065 236.304 35.2065C236.947 35.2065 237.453 34.9844 237.821 34.54C238.189 34.0915 238.376 33.4736 238.38 32.6865V32.4263H237.288ZM239.554 31.9438V36H238.38V34.9463C238.13 35.3695 237.815 35.6826 237.434 35.8857C237.057 36.0846 236.598 36.1841 236.057 36.1841C235.333 36.1841 234.755 35.981 234.324 35.5747C233.892 35.1642 233.676 34.6162 233.676 33.9307C233.676 33.1393 233.941 32.5384 234.47 32.1279C235.003 31.7174 235.784 31.5122 236.812 31.5122H238.38V31.3281C238.376 30.7611 238.232 30.3506 237.948 30.0967C237.665 29.8385 237.212 29.7095 236.59 29.7095C236.192 29.7095 235.79 29.7666 235.384 29.8809C234.978 29.9951 234.582 30.1623 234.197 30.3823V29.2144C234.628 29.0493 235.041 28.9266 235.435 28.8462C235.832 28.7616 236.217 28.7192 236.59 28.7192C237.178 28.7192 237.68 28.806 238.094 28.9795C238.513 29.153 238.852 29.4132 239.11 29.7603C239.271 29.9718 239.385 30.2342 239.453 30.5474C239.52 30.8563 239.554 31.3218 239.554 31.9438ZM244.562 26.8721V28.8906H247.216V29.7983H244.562V33.6577C244.562 34.1825 244.662 34.5485 244.861 34.7559C245.06 34.9632 245.407 35.0669 245.902 35.0669H247.216V36H245.788C244.912 36 244.294 35.8244 243.934 35.4731C243.574 35.1219 243.395 34.5168 243.395 33.6577V29.7983H241.497V28.8906H243.395V26.8721H244.562ZM250.504 28.916H253.494V35.0923H255.811V36H250.009V35.0923H252.326V29.8237H250.504V28.916ZM252.326 26.1548H253.494V27.6274H252.326V26.1548ZM260.241 29.7095C259.649 29.7095 259.2 29.9401 258.896 30.4014C258.591 30.8626 258.438 31.5461 258.438 32.4517C258.438 33.353 258.591 34.0365 258.896 34.502C259.2 34.9632 259.649 35.1938 260.241 35.1938C260.838 35.1938 261.289 34.9632 261.593 34.502C261.898 34.0365 262.05 33.353 262.05 32.4517C262.05 31.5461 261.898 30.8626 261.593 30.4014C261.289 29.9401 260.838 29.7095 260.241 29.7095ZM260.241 28.7192C261.227 28.7192 261.98 29.0387 262.501 29.6777C263.026 30.3167 263.288 31.2414 263.288 32.4517C263.288 33.6662 263.028 34.5929 262.507 35.2319C261.987 35.8667 261.231 36.1841 260.241 36.1841C259.255 36.1841 258.502 35.8667 257.981 35.2319C257.461 34.5929 257.201 33.6662 257.201 32.4517C257.201 31.2414 257.461 30.3167 257.981 29.6777C258.502 29.0387 259.255 28.7192 260.241 28.7192ZM270.835 31.5947V36H269.661V31.5947C269.661 30.9557 269.549 30.486 269.325 30.1855C269.1 29.8851 268.749 29.7349 268.271 29.7349C267.725 29.7349 267.304 29.9295 267.008 30.3188C266.716 30.7039 266.57 31.2583 266.57 31.9819V36H265.402V28.8906H266.57V29.957C266.777 29.5508 267.059 29.244 267.414 29.0366C267.77 28.825 268.191 28.7192 268.677 28.7192C269.401 28.7192 269.94 28.9583 270.296 29.4365C270.656 29.9105 270.835 30.6299 270.835 31.5947Z" fill="white"/>
<path d="M33 177H371" stroke="#1D0F1A" stroke-width="3"/>
<path d="M33 136H371" stroke="#1D0F1A" stroke-width="3"/>
<path d="M33 94H371" stroke="#1D0F1A" stroke-width="3"/>
<path d="M33 53H371" stroke="#1D0F1A" stroke-width="3"/>
</svg>
